<?xml version="1.0" standalone="no"?>
<!DOCTYPE svg PUBLIC "-//W3C//DTD SVG 20010904//EN"
 "http://www.w3.org/TR/2001/REC-SVG-20010904/DTD/svg10.dtd">
<svg version="1.0" xmlns="http://www.w3.org/2000/svg"
 width="523.000000pt" height="523.000000pt" viewBox="0 0 523.000000 523.000000"
 preserveAspectRatio="xMidYMid meet">
<metadata>
Created by potrace 1.11, written by Peter Selinger 2001-2013
</metadata>
<g transform="translate(0.000000,523.000000) scale(0.100000,-0.100000)"
fill="#000000" stroke="none">
<path d="M565 4283 c3 -379 8 -737 10 -798 6 -201 15 -419 20 -485 3 -36 7
-108 10 -160 12 -231 42 -559 70 -790 2 -14 7 -54 10 -90 4 -36 9 -74 11 -85
2 -11 6 -42 9 -70 3 -27 10 -72 15 -100 5 -27 11 -70 15 -95 10 -82 85 -488
116 -625 48 -218 131 -538 175 -676 l24 -76 1864 1 1864 1 -13 40 c-70 225
-93 299 -126 420 -22 77 -41 149 -43 160 -3 11 -17 67 -31 125 -15 58 -31 125
-36 150 -5 25 -18 88 -29 140 -11 52 -29 142 -40 200 -10 58 -22 121 -25 140
-4 19 -8 44 -9 55 -2 11 -6 40 -10 65 -4 25 -10 59 -12 75 -3 17 -6 37 -9 45
-2 8 -6 40 -10 71 -3 31 -7 66 -9 76 -3 11 -7 44 -10 74 -4 30 -9 70 -11 89
-3 19 -7 58 -10 85 -3 28 -7 68 -10 90 -2 22 -7 71 -10 108 -4 37 -8 76 -10
85 -1 10 -6 64 -10 122 -4 58 -8 123 -10 145 -3 36 -8 120 -20 300 -3 63 -13
291 -21 505 -2 69 -6 400 -9 735 -2 336 -4 616 -5 623 0 9 -375 12 -1841 12
l-1841 0 7 -687z"/>
</g>
</svg>
